<?xml version="1.0" encoding="UTF-8"?>
<svg xmlns="http://www.w3.org/2000/svg" viewBox="0 0 474.7 80">
  <g isolation="isolate">
    <g id="Layer_1" data-name="Layer 1">
      <g>
        <path d="M39.87,0h-3.88c-.12,0-.22.1-.22.22v20.38c0,.12.1.22.22.22h8.02c.12,0,.22-.1.22-.22v-11.84s0-.01.01-.01c14.95,2.02,26.61,14.56,27.27,29.9.79,18.43-14.42,33.64-32.85,32.87-16.77-.7-30.2-14.57-30.2-31.51,0-8.09,3.06-15.79,8.61-21.66.71-.75,1.47-1.48,2.25-2.16.09-.08.1-.22.02-.31l-5.22-6.09c-.08-.09-.22-.1-.31-.02-1,.87-1.97,1.8-2.89,2.77C3.88,19.98,0,29.74,0,40c0,22.06,17.94,40,40,40s40.05-18,40-40.1c-.05-22.07-18.06-39.9-40.13-39.9Z" fill="#fff"/>
        <polygon points="35.75 20.12 35.78 13.34 44.25 13.34 44.22 20.12 35.75 20.12" fill="#fff" mix-blend-mode="multiply"/>
        <path d="M64.02,36.8c-.01-.11-.11-.19-.22-.19h-14.14c-.14,0-.25.14-.21.28.26.99.4,2.03.4,3.11s-.14,2.12-.4,3.11c-.04.14.07.28.21.28h7.2c.14,0,.24.13.22.27-1.81,8.47-9.77,14.68-18.96,13.71-7.7-.81-14.7-7.84-15.48-15.55-1.06-10.44,7.14-19.28,17.37-19.28,4.4,0,8.43,1.64,11.51,4.34.08.07.2.07.29,0l4.93-4.07c.1-.08.11-.24.01-.33-4.2-4.02-9.85-6.54-16.07-6.71-13.93-.37-25.35,11.12-24.88,25.05.44,12.98,11.13,23.4,24.22,23.4s24.23-10.87,24.23-24.23c0-1.08-.07-2.15-.21-3.2Z" fill="#fff"/>
        <polygon points="46.03 43.39 46.05 36.61 51.6 36.61 51.58 43.39 46.03 43.39" fill="#fff" mix-blend-mode="multiply"/>
        <g>
          <path d="M40.08,36.1c-2.23-.04-4.04,1.79-3.97,4.03.07,2.04,1.72,3.7,3.77,3.77,2.23.07,4.07-1.74,4.03-3.97-.04-2.09-1.74-3.78-3.82-3.82Z" fill="#fff"/>
          <path d="M38.13,30.16c-4.05.74-7.23,3.92-7.97,7.97-1.27,6.97,4.74,12.97,11.71,11.71,4.05-.74,7.23-3.92,7.97-7.97,1.27-6.97-4.74-12.97-11.71-11.71ZM39.87,43.9c-2.04-.07-3.7-1.72-3.77-3.77-.07-2.23,1.74-4.07,3.97-4.03,2.09.04,3.78,1.74,3.82,3.82.04,2.23-1.79,4.04-4.03,3.97Z" fill="#fff"/>
        </g>
      </g>
      <g>
        <path d="M91.13,28.05c2.11-3.79,5.05-6.74,8.81-8.85,3.76-2.11,8.06-3.17,12.89-3.17,5.85,0,10.79,1.42,14.81,4.25,4.02,2.83,6.68,6.76,7.98,11.78h-13.17c-.88-1.63-2.15-2.87-3.8-3.73-1.65-.86-3.59-1.29-5.82-1.29-3.86,0-6.95,1.27-9.27,3.8-2.32,2.53-3.48,5.91-3.48,10.14,0,4.51,1.22,8.02,3.66,10.56,2.44,2.53,5.79,3.8,10.07,3.8,2.93,0,5.41-.75,7.46-2.26,2.04-1.51,3.51-3.66,4.39-6.45h-15.12v-8.71h25.92v11.08c-.88,2.97-2.38,5.74-4.49,8.29-2.11,2.56-4.8,4.62-8.05,6.2-3.25,1.58-6.92,2.37-11.01,2.37-4.83,0-9.14-1.06-12.93-3.17-3.79-2.11-6.74-5.05-8.85-8.81-2.11-3.76-3.17-8.06-3.17-12.89s1.06-9.14,3.17-12.93Z" fill="#fff"/>
        <path d="M150.5,63.62c-3.04-1.63-5.44-3.95-7.18-6.97-1.74-3.02-2.61-6.55-2.61-10.59s.88-7.51,2.65-10.56c1.77-3.04,4.18-5.38,7.25-7,3.07-1.63,6.5-2.44,10.31-2.44s7.25.81,10.31,2.44c3.07,1.63,5.48,3.96,7.25,7,1.77,3.04,2.65,6.56,2.65,10.56s-.9,7.51-2.68,10.56c-1.79,3.04-4.23,5.38-7.32,7-3.09,1.63-6.54,2.44-10.35,2.44s-7.24-.81-10.28-2.44ZM166.6,53.27c1.6-1.7,2.4-4.1,2.4-7.21s-.78-5.52-2.33-7.21c-1.56-1.7-3.47-2.54-5.75-2.54s-4.25.84-5.78,2.51-2.3,4.09-2.3,7.25.75,5.52,2.26,7.21c1.51,1.7,3.4,2.54,5.68,2.54s4.22-.85,5.82-2.54Z" fill="#fff"/>
        <path d="M219.31,19.65c3.86,2.04,6.84,4.91,8.95,8.61,2.11,3.69,3.17,7.96,3.17,12.79s-1.06,9.04-3.17,12.75c-2.11,3.72-5.11,6.6-8.99,8.64-3.88,2.04-8.37,3.07-13.48,3.07h-18.33V16.59h18.33c5.16,0,9.66,1.02,13.52,3.07ZM215.55,51.57c2.51-2.51,3.76-6.02,3.76-10.52s-1.25-8.01-3.76-10.52c-2.51-2.51-6.02-3.76-10.52-3.76h-5.64v28.57h5.64c4.51,0,8.01-1.25,10.52-3.76Z" fill="#fff"/>
        <path d="M272.76,30.63c2.69,2.95,4.04,7,4.04,12.16v22.72h-11.85v-21.11c0-2.6-.67-4.62-2.02-6.06-1.35-1.44-3.16-2.16-5.43-2.16s-4.09.72-5.44,2.16c-1.35,1.44-2.02,3.46-2.02,6.06v21.11h-11.92V13.94h11.92v17.91c1.21-1.72,2.86-3.09,4.95-4.11,2.09-1.02,4.44-1.53,7.04-1.53,4.46,0,8.04,1.48,10.73,4.42Z" fill="#fff"/>
        <path d="M284.99,35.47c1.51-3.02,3.56-5.34,6.17-6.97,2.6-1.63,5.5-2.44,8.71-2.44,2.74,0,5.14.56,7.21,1.67,2.07,1.11,3.66,2.58,4.77,4.39v-5.5h11.92v38.88h-11.92v-5.5c-1.16,1.81-2.78,3.28-4.84,4.39-2.07,1.11-4.47,1.67-7.21,1.67-3.16,0-6.04-.82-8.64-2.47-2.6-1.65-4.66-4-6.17-7.04-1.51-3.04-2.26-6.56-2.26-10.56s.75-7.5,2.26-10.52ZM309.38,39.02c-1.65-1.72-3.66-2.58-6.03-2.58s-4.38.85-6.03,2.54c-1.65,1.7-2.47,4.03-2.47,7s.82,5.33,2.47,7.07c1.65,1.74,3.66,2.61,6.03,2.61s4.38-.86,6.03-2.58c1.65-1.72,2.47-4.06,2.47-7.04s-.83-5.32-2.47-7.04Z" fill="#fff"/>
        <path d="M349.59,28.19c2.11-1.32,4.42-1.99,6.93-1.99v12.61h-3.28c-2.97,0-5.2.64-6.69,1.92-1.49,1.28-2.23,3.52-2.23,6.72v18.05h-11.92V26.62h11.92v6.97c1.39-2.28,3.15-4.08,5.26-5.4Z" fill="#fff"/>
        <path d="M423.38,30.59c2.86,2.93,4.29,6.99,4.29,12.19v22.72h-11.85v-21.11c0-2.51-.66-4.45-1.99-5.82-1.32-1.37-3.15-2.06-5.47-2.06s-4.15.69-5.47,2.06c-1.32,1.37-1.99,3.31-1.99,5.82v21.11h-11.85v-21.11c0-2.51-.66-4.45-1.99-5.82-1.32-1.37-3.15-2.06-5.47-2.06s-4.15.69-5.47,2.06c-1.32,1.37-1.99,3.31-1.99,5.82v21.11h-11.92V26.62h11.92v4.88c1.21-1.63,2.79-2.91,4.74-3.87,1.95-.95,4.16-1.43,6.62-1.43,2.93,0,5.54.63,7.84,1.88,2.3,1.25,4.1,3.04,5.4,5.37,1.35-2.14,3.18-3.88,5.5-5.23,2.32-1.35,4.85-2.02,7.6-2.02,4.83,0,8.68,1.46,11.53,4.39Z" fill="#fff"/>
        <path d="M435.92,35.47c1.51-3.02,3.56-5.34,6.17-6.97,2.6-1.63,5.5-2.44,8.71-2.44,2.74,0,5.14.56,7.21,1.67,2.07,1.11,3.66,2.58,4.77,4.39v-5.5h11.92v38.88h-11.92v-5.5c-1.16,1.81-2.78,3.28-4.84,4.39-2.07,1.11-4.47,1.67-7.21,1.67-3.16,0-6.04-.82-8.64-2.47-2.6-1.65-4.66-4-6.17-7.04-1.51-3.04-2.26-6.56-2.26-10.56s.75-7.5,2.26-10.52ZM460.31,39.02c-1.65-1.72-3.66-2.58-6.03-2.58s-4.38.85-6.03,2.54c-1.65,1.7-2.47,4.03-2.47,7s.82,5.33,2.47,7.07c1.65,1.74,3.66,2.61,6.03,2.61s4.38-.86,6.03-2.58c1.65-1.72,2.47-4.06,2.47-7.04s-.83-5.32-2.47-7.04Z" fill="#fff"/>
      </g>
    </g>
  </g>
</svg>